				<svg xmlns="http://www.w3.org/2000/svg" width="45" height="38" viewBox="0 0 45 38" fill="none">
					<g clip-path="url(#clip0_101_217)">
					<path d="M3.28422 33.7398C1.53749 33.6025 0.222311 32.4404 0 30.6785L0.00373632 3.00862C0.280224 1.44414 1.58233 0.156072 3.17213 0.00940193L30.3015 0C31.9642 0.263254 33.6792 0.720188 35.2503 1.32567C36.657 1.86722 37.4547 2.9052 37.6004 4.43583L37.5967 17.6982L43.7093 20.4812C44.3015 20.9231 43.9559 21.333 43.5412 21.7185C42.7883 22.4161 41.7253 23.0535 41.0285 23.7718C40.9818 23.8189 40.9071 23.8602 40.9201 23.9411L44.4323 28.1437C44.7218 28.7079 44.2996 29.0727 43.9279 29.4281C43.2778 30.0467 42.2932 30.9474 41.5908 31.4777C41.0229 31.9064 40.7744 31.8951 40.2607 31.3912L37.6023 28.266V30.199C37.6023 30.545 37.3015 31.2464 37.1184 31.5567C36.6495 32.3445 35.9266 32.8936 35.028 33.0816C34.9626 34.381 35.2297 35.6258 34.0846 36.534C32.9431 37.4404 29.756 37.446 28.2951 37.8465L6.65625 37.8428C5.61008 37.8014 4.37896 36.6074 4.37896 35.5525V33.6777C4.336 33.6627 4.30797 33.7379 4.29116 33.7379C3.96797 33.7379 3.60181 33.7623 3.28609 33.7379L3.28422 33.7398ZM32.4574 15.3534V3.24555C32.4574 2.36177 31.3085 1.22601 30.4174 1.19405H3.22257C2.05311 1.30875 1.19189 2.32604 1.12463 3.48248V30.3231C1.14144 31.4702 2.03629 32.4404 3.16653 32.5514L30.0661 32.5551C32.4686 32.3991 32.6031 30.4585 32.4574 28.4766L29.4982 14.9698C29.5842 14.4978 29.827 14.3474 30.2941 14.4094L32.4574 15.3552V15.3534ZM36.4179 17.1397V4.13685C36.4179 3.72129 35.835 2.92588 35.4913 2.68895C35.1232 2.43322 33.9351 2.05526 33.4643 1.93116C33.412 1.91799 33.2831 1.86722 33.2831 1.93492C33.4625 2.35236 33.5988 2.78485 33.6399 3.24179L33.6474 15.8498L36.416 17.1378L36.4179 17.1397ZM42.3885 21.066L30.9218 15.8893L33.6418 28.3243C34.2975 27.7884 34.9476 27.2393 35.5922 26.6883C36.0984 26.2558 36.7299 25.3025 37.3949 26.0622L41.0005 30.466L43.2759 28.4747L39.5209 23.9843C39.4294 23.7286 39.5564 23.4804 39.7283 23.2942L42.3269 21.2108L42.3904 21.066H42.3885ZM36.4179 30.3194V27.6116L33.6698 29.9922C33.6231 30.7706 33.4681 31.4984 33.0477 32.1621C33.0477 32.2449 34.5348 31.9609 34.6543 31.9346C35.4913 31.7522 36.2722 31.2483 36.4179 30.3175V30.3194ZM33.8753 33.264L30.0325 33.7398V35.6728C30.0325 35.7762 29.7672 36.3892 29.7971 36.4156C30.7424 36.1824 31.9268 36.173 32.8385 35.8778C33.2196 35.7537 33.5633 35.4791 33.7296 35.1087C33.7539 35.0523 33.8772 34.6856 33.8772 34.663V33.264H33.8753ZM28.9098 33.7398H5.49986C5.48491 33.783 5.55964 33.8112 5.55964 33.8282V35.6728C5.55964 35.7217 5.87536 36.2275 5.94448 36.2971C6.17613 36.534 6.55537 36.6995 6.8879 36.7164H27.4638C27.9234 36.7597 28.85 36.0583 28.85 35.6126V33.8282C28.85 33.815 28.9378 33.7605 28.9098 33.7398Z" fill="#082146"/>
					<path d="M32.4574 15.3534L30.2941 14.4075C29.8252 14.3474 29.5823 14.4959 29.4983 14.9679L32.4574 28.4747C32.6031 30.4566 32.4705 32.3953 30.0662 32.5533L3.16657 32.5495C2.03446 32.4404 1.14148 31.4683 1.1228 30.3212V3.4806C1.19192 2.32604 2.05315 1.30687 3.22261 1.19028H30.4174C31.3085 1.22413 32.4574 2.35989 32.4574 3.24555V15.3534ZM6.78706 4.18198C5.66243 4.38318 4.79373 5.18423 4.52285 6.30682C4.379 11.4628 4.379 16.6847 4.52285 21.8407C4.85351 23.1212 5.86979 23.9448 7.18311 24.0426C13.675 23.9806 20.1892 24.1573 26.6661 23.9524C27.8076 23.6647 28.7099 22.7076 28.8537 21.5135V6.57571C28.6258 5.21807 27.6563 4.27036 26.2832 4.16694L6.78706 4.18386V4.18198ZM25.8199 27.0889C24.3795 27.3841 24.5327 29.7233 26.1038 29.8135C28.1046 29.9264 27.9701 26.6488 25.8199 27.0889ZM12.4551 27.8692C12.3168 27.7357 12.102 27.6849 11.9152 27.668C9.93117 27.48 7.66136 27.8128 5.64561 27.668C4.67604 27.8579 4.78253 29.1009 5.76518 29.1554C7.70993 29.0275 9.87512 29.3284 11.7937 29.1554C11.9208 29.1441 12.1711 29.1009 12.2813 29.052C12.7073 28.8602 12.7801 28.1814 12.4551 27.8673V27.8692ZM20.264 27.6849C19.5634 27.8278 19.4494 28.8884 20.2415 29.1084C20.6376 29.2193 22.3881 29.2062 22.8457 29.1516C23.8022 29.0369 23.8153 27.8767 23.0625 27.6962C22.7542 27.6229 20.5853 27.6191 20.264 27.6849Z" fill="#93D8D6" class="buddy-body"/>
					<path d="M42.3885 21.066L42.325 21.2108L39.7264 23.2942C39.5546 23.4804 39.4275 23.7286 39.5191 23.9843L43.2741 28.4747L40.9986 30.466L37.3931 26.0622C36.728 25.3025 36.0947 26.2577 35.5903 26.6883C34.9458 27.2393 34.2957 27.7865 33.64 28.3243L30.9199 15.8893L42.3867 21.066H42.3885Z" fill="white"/>
					<path d="M28.9097 33.7398C28.9396 33.7605 28.8499 33.8169 28.8499 33.8282V35.6126C28.8499 36.0564 27.9214 36.7597 27.4637 36.7164H6.88782C6.55529 36.6995 6.17605 36.534 5.9444 36.2971C5.87528 36.2275 5.55956 35.7217 5.55956 35.6728V33.8282C5.55956 33.8094 5.48483 33.783 5.49978 33.7398H28.9097Z" fill="#93D8D6" class="buddy-body"/>
					<path d="M36.4178 17.1397L33.6492 15.8517L33.6417 3.24367C33.6006 2.78673 33.4643 2.35612 33.2849 1.9368C33.2849 1.8691 33.4138 1.91988 33.4661 1.93304C33.9369 2.05714 35.1232 2.4351 35.4931 2.69083C35.8349 2.92776 36.4197 3.72317 36.4197 4.13873V17.1397H36.4178Z" fill="#02B2AD" class="buddy-side"/>
					<path d="M33.8754 33.264V34.6631C33.8754 34.6875 33.7521 35.0542 33.7278 35.1087C33.5634 35.481 33.2178 35.7556 32.8367 35.8778C31.925 36.173 30.7406 36.1824 29.7953 36.4156C29.7673 36.3893 30.0307 35.7762 30.0307 35.6728V33.7398L33.8735 33.264H33.8754Z" fill="#02B2AD" class="buddy-side"/>
					<path d="M36.4178 30.3194C36.2739 31.252 35.4912 31.7541 34.6542 31.9365C34.5328 31.9628 33.0457 32.2449 33.0476 32.164C33.4679 31.5002 33.623 30.7725 33.6697 29.9941L36.4178 27.6135V30.3212V30.3194Z" fill="#02B2AD" class="buddy-side"/>
					<path d="M6.78697 4.18198L26.2831 4.16506C27.6562 4.26848 28.6276 5.21619 28.8555 6.57383V21.5135C28.7117 22.7076 27.8094 23.6665 26.6679 23.9524C20.191 24.1554 13.6767 23.9787 7.18489 24.0426C5.87344 23.9448 4.8553 23.1212 4.52463 21.8407C4.38079 16.6847 4.38079 11.4628 4.52463 6.30682C4.79365 5.18423 5.66421 4.38318 6.78884 4.18198H6.78697ZM7.08214 5.37226C6.34422 5.48697 5.78751 6.07741 5.67729 6.81452V21.3368C5.74828 22.151 6.39092 22.7188 7.18302 22.7941H26.1635C27.0247 22.7151 27.6132 21.9986 27.6711 21.1581V7.10974C27.6281 6.13194 27.0285 5.43244 26.0458 5.35534L7.08214 5.37226Z" fill="#082145"/>
					<path d="M12.4549 27.8692C12.7818 28.1832 12.7071 28.8602 12.2812 29.0539C12.1709 29.1046 11.9206 29.146 11.7936 29.1573C9.87497 29.3322 7.70978 29.0294 5.76502 29.1573C4.78237 29.1028 4.67402 27.8598 5.64546 27.6699C7.6612 27.8147 9.93102 27.4819 11.915 27.6699C12.1018 27.6868 12.3148 27.7376 12.4549 27.8711V27.8692Z" fill="#082145"/>
					<path d="M25.8198 27.0889C27.9701 26.6488 28.1046 29.9264 26.1038 29.8135C24.5308 29.7252 24.3795 27.3841 25.8198 27.0889Z" fill="#082145"/>
					<path d="M20.2638 27.6849C20.5852 27.6191 22.7541 27.6229 23.0623 27.6962C23.8152 27.8767 23.8021 29.0369 22.8456 29.1516C22.3879 29.2062 20.6375 29.2193 20.2414 29.1084C19.4512 28.8865 19.5651 27.8278 20.2638 27.6849Z" fill="#082145"/>
					<path d="m7.08 5.37l18.97-0.01c0.98 0.07 1.58 0.77 1.62 1.75v14.05c-0.06 0.84-0.65 1.55-1.51 1.63h-18.98c-0.79-0.07-1.43-0.64-1.5-1.46v-14.52c0.11-0.73 0.66-1.32 1.4-1.44z" fill="#FFD546"/>
					<path d="M11.3098 15.3703C11.6124 15.0657 12.0851 15.265 12.3298 15.5301C12.638 15.8648 12.7894 16.2296 13.1854 16.5737C15.3357 18.441 18.7469 18.2097 20.6655 16.1281C20.9682 15.799 21.2465 15.1352 21.8312 15.2462C22.5075 15.374 22.3058 16.0228 22.0423 16.444C20.064 19.5974 14.9471 19.9528 12.2719 17.5534C11.8534 17.1773 10.7549 15.9306 11.3116 15.3703H11.3098Z" fill="#082145" class="buddy-smile"/>
					<path d="M20.7964 9.41698C22.1564 9.19697 22.1993 11.2203 22.1115 12.1097C21.9434 13.8114 20.0304 13.7682 19.866 12.23C19.8193 11.7975 19.8212 10.5621 19.9557 10.1785C20.0902 9.79494 20.3984 9.48091 20.7964 9.41698Z" fill="#082145" class="buddy-eye"/>
					<path d="M12.3428 9.41698C13.7421 9.19321 13.7458 11.2748 13.658 12.1699C13.4936 13.8528 11.5769 13.7795 11.4125 12.1097C11.3695 11.6678 11.3676 10.6373 11.5021 10.2368C11.618 9.88895 11.9636 9.47715 12.3428 9.4151V9.41698Z" fill="#082145" class="buddy-eye"/>
					</g>
					<defs>
					<clipPath id="clip0_101_217">
					<rect width="44.5276" height="37.8484" fill="white"/>
					</clipPath>
					</defs>
				</svg>